<svg width="240" height="240" viewBox="0 0 240 240" fill="none" xmlns="http://www.w3.org/2000/svg">
<circle cx="120" cy="120" r="120" fill="#DDDDDD"/>
<path d="M71 190H169C176.721 190 183 183.721 183 176V71C183 63.279 176.721 57 169 57H155C155 55.1435 154.263 53.363 152.95 52.0503C151.637 50.7375 149.857 50 148 50H92C90.1435 50 88.363 50.7375 87.0503 52.0503C85.7375 53.363 85 55.1435 85 57H71C63.279 57 57 63.279 57 71V176C57 183.721 63.279 190 71 190ZM71 71H85V85H155V71H169V176H71V71Z" fill="#313131"/>
<path d="M113 131.102L100.449 118.551L90.551 128.449L113 150.898L149.449 114.449L139.551 104.551L113 131.102Z" fill="#313131"/>
</svg>
