<svg width="240" height="240" viewBox="0 0 240 240" fill="none" xmlns="http://www.w3.org/2000/svg">
<circle cx="120" cy="120" r="120" fill="#DDDDDD"/>
<path d="M196.488 159.63C192.323 149.751 186.281 140.777 178.696 133.208C171.134 125.618 162.176 119.566 152.317 115.387C152.229 115.343 152.14 115.321 152.052 115.276C165.804 105.327 174.744 89.1196 174.744 70.8342C174.744 40.5427 150.242 16 120 16C89.7582 16 65.2557 40.5427 65.2557 70.8342C65.2557 89.1196 74.1958 105.327 87.9481 115.298C87.8598 115.343 87.7715 115.365 87.6832 115.409C77.7939 119.588 68.92 125.58 61.3044 133.23C53.7265 140.805 47.6846 149.777 43.5125 159.652C39.4138 169.32 37.2032 179.685 37.0006 190.187C36.9947 190.423 37.036 190.658 37.1221 190.877C37.2082 191.097 37.3373 191.297 37.5019 191.466C37.6665 191.635 37.8632 191.77 38.0803 191.861C38.2975 191.953 38.5308 192 38.7665 192H52.0111C52.9824 192 53.755 191.226 53.777 190.275C54.2185 173.206 61.0616 157.22 73.1583 145.104C85.6744 132.567 102.296 125.668 120 125.668C137.704 125.668 154.326 132.567 166.842 145.104C178.938 157.22 185.781 173.206 186.223 190.275C186.245 191.248 187.018 192 187.989 192H201.233C201.469 192 201.702 191.953 201.92 191.861C202.137 191.77 202.334 191.635 202.498 191.466C202.663 191.297 202.792 191.097 202.878 190.877C202.964 190.658 203.005 190.423 202.999 190.187C202.779 179.618 200.593 169.337 196.488 159.63V159.63ZM120 108.864C109.868 108.864 100.332 104.907 93.1576 97.7206C85.9835 90.5347 82.0322 80.9829 82.0322 70.8342C82.0322 60.6854 85.9835 51.1337 93.1576 43.9477C100.332 36.7618 109.868 32.804 120 32.804C130.132 32.804 139.668 36.7618 146.842 43.9477C154.017 51.1337 157.968 60.6854 157.968 70.8342C157.968 80.9829 154.017 90.5347 146.842 97.7206C139.668 104.907 130.132 108.864 120 108.864Z" fill="#2F6BDF"/>
</svg>
